# Blender v2.63 (sub 0) OBJ File: 'roda-gigante.blend'
# www.blender.org
mtllib ferris-wheel.mtl
o chair
v 6.066908 -19.579105 1.000000
v 6.066908 -19.579105 -1.000000
v 8.291142 -19.579105 -1.000000
v 8.291142 -19.579105 1.000000
v 6.066908 -0.047825 1.000000
v 6.066908 -0.047825 -1.000000
v 8.291142 -0.047825 -1.000000
v 8.291142 -0.047825 1.000000
v 6.066908 -19.579105 -6.043294
v 8.291142 -19.579105 -6.043294
v 6.066908 -20.697678 4.872218
v 8.291142 -20.697678 4.872218
v 6.066908 -19.579105 5.619105
v 8.291142 -19.579105 5.619105
v 6.066908 -20.697678 5.619105
v 8.291142 -20.697678 5.619105
v 6.066908 -26.125055 4.872218
v 8.291142 -26.125055 4.872218
v 6.066908 -26.125055 5.619105
v 8.291142 -26.125055 5.619105
v 6.066908 -27.270285 4.872218
v 8.291142 -27.270285 4.872218
v 6.066908 -27.270285 5.619105
v 8.291142 -27.270285 5.619105
v 6.066908 -26.125055 8.407484
v 8.291142 -26.125055 8.407484
v 6.066908 -27.270285 8.407484
v 8.291142 -27.270285 8.407484
v 8.291142 -19.579105 -7.387691
v 8.291142 -20.697678 -7.387691
v 6.066908 -2.609828 -6.043294
v 8.291142 -2.609828 -6.043294
v 6.066908 -2.609828 -7.387691
v 8.291142 -2.609828 -7.387691
v -5.953915 -19.579105 1.000000
v -5.953915 -19.579105 -1.000000
v -5.953915 -19.579105 -6.043294
v -5.953915 -20.697678 4.872218
v -5.953915 -19.579105 5.619105
v -5.953915 -20.697678 5.619105
v -5.953915 -26.125055 4.872218
v -5.953915 -26.125055 5.619105
v -5.953915 -27.270285 4.872218
v -5.953915 -27.270285 5.619105
v -5.953915 -26.125055 8.407484
v -5.953915 -27.270285 8.407484
v -5.953915 -2.609828 -6.043294
v -5.953915 -2.609828 -7.387691
v -8.265750 -19.579105 1.000000
v -8.265750 -19.579105 -1.000000
v -8.265750 -19.579105 -6.043294
v -8.265750 -20.697678 4.872218
v -8.265750 -19.579105 5.619105
v -8.265750 -20.697678 5.619105
v -8.265750 -26.125055 4.872218
v -8.265750 -26.125055 5.619105
v -8.265750 -27.270285 4.872218
v -8.265750 -27.270285 5.619105
v -8.265750 -26.125055 8.407484
v -8.265750 -27.270285 8.407484
v -8.265750 -19.579105 -7.387691
v -8.265750 -20.697678 -7.387691
v -8.265750 -2.609828 -6.043294
v -8.265750 -2.609828 -7.387691
v -5.953915 -19.579105 1.000000
v -5.953915 -19.579105 -1.000000
v -5.953915 -0.047825 1.000000
v -5.953915 -0.047825 -1.000000
v -8.265751 -19.579105 1.000000
v -8.265751 -19.579105 -1.000000
v -8.265751 -0.047825 1.000000
v -8.265751 -0.047825 -1.000000
vn 0.000000 0.000000 -1.000000
vn 1.000000 -0.000000 0.000000
vn 0.000000 0.000000 1.000000
vn 0.000000 0.566398 0.824132
vn -0.000000 1.000000 0.000000
vn -1.000000 0.000000 0.000000
vn 0.000000 -1.000000 -0.000000
usemtl green
s off
f 6//1 7//1 3//1 2//1
f 7//2 8//2 4//2 3//2
f 1//3 4//3 8//3 5//3
f 31//4 13//4 14//4 32//4
f 8//5 7//5 6//5 5//5
f 37//2 47//2 39//2
f 48//5 47//5 31//5 33//5
f 19//3 15//3 40//3 42//3
f 29//2 14//2 16//2 30//2
f 25//5 19//5 42//5 45//5
f 15//3 16//3 14//3 13//3
f 53//6 63//6 51//6
f 12//2 16//2 20//2 18//2
f 18//2 20//2 24//2 22//2
f 39//3 40//3 15//3 13//3
f 19//3 20//3 16//3 15//3
f 11//1 12//1 18//1 17//1
f 21//7 22//7 24//7 23//7
f 17//1 18//1 22//1 21//1
f 9//3 31//3 47//3 37//3
f 23//7 24//7 28//7 27//7
f 25//5 26//5 20//5 19//5
f 26//2 28//2 24//2 20//2
f 30//1 62//1 64//1 34//1
f 11//1 17//1 41//1 38//1
f 21//7 23//7 44//7 43//7
f 34//5 33//5 31//5 32//5
f 34//2 32//2 10//2 29//2
f 13//6 31//6 9//6
f 45//5 42//5 56//5 59//5
f 53//3 54//3 40//3 39//3
f 43//7 44//7 58//7 57//7
f 26//3 59//3 60//3 28//3
f 64//5 63//5 47//5 48//5
f 37//5 39//5 13//5 9//5
f 23//7 27//7 46//7 44//7
f 43//1 41//1 17//1 21//1
f 53//6 61//6 62//6 54//6
f 55//6 56//6 54//6 52//6
f 56//6 58//6 60//6 59//6
f 57//6 58//6 56//6 55//6
f 61//6 51//6 63//6 64//6
f 38//1 41//1 55//1 52//1
f 47//4 63//4 53//4 39//4
f 12//7 52//7 62//7 30//7
f 50//5 49//5 35//5 36//5
f 44//7 46//7 60//7 58//7
f 57//1 55//1 41//1 43//1
f 42//3 40//3 54//3 56//3
f 65//3 67//3 71//3 69//3
f 1//6 5//6 6//6 2//6
f 67//2 65//2 66//2 68//2
f 71//6 72//6 70//6 69//6
f 67//5 68//5 72//5 71//5
f 68//1 66//1 70//1 72//1
f 66//7 65//7 69//7 70//7
f 14//2 10//2 32//2
o support
v 12.586434 -97.264946 47.502548
v 12.586434 -97.264946 45.502548
v 14.586434 -97.264946 45.502548
v 14.586434 -97.264946 47.502548
v 12.586434 1.000000 1.000000
v 12.586434 1.000000 -1.000000
v 14.586434 1.000000 -1.000000
v 14.586434 1.000000 1.000000
v 12.586434 -97.264946 -47.502548
v 12.586434 -97.264946 -45.502548
v 14.586434 -97.264946 -45.502548
v 14.586434 -97.264946 -47.502548
v 12.586434 1.000000 -1.000000
v 12.586434 1.000000 1.000000
v 14.586434 1.000000 1.000000
v 14.586434 1.000000 -1.000000
v -12.586434 -97.264946 47.502548
v -12.586434 -97.264946 45.502548
v -14.586434 -97.264946 45.502548
v -14.586434 -97.264946 47.502548
v -12.586434 1.000000 1.000000
v -12.586434 1.000000 -1.000000
v -14.586434 1.000000 -1.000000
v -14.586434 1.000000 1.000000
v -12.586434 -97.264946 -47.502548
v -12.586434 -97.264946 -45.502548
v -14.586434 -97.264946 -45.502548
v -14.586434 -97.264946 -47.502548
v -12.586434 1.000000 -1.000000
v -12.586434 1.000000 1.000000
v -14.586434 1.000000 1.000000
v -14.586434 1.000000 -1.000000
v 12.586434 -99.305519 -47.502548
v 14.586434 -99.305519 -47.502548
v -12.586434 -99.305519 -47.502548
v -14.586434 -99.305519 -47.502548
v 12.586434 -99.305519 47.480774
v 14.586434 -99.305519 47.480774
v -12.586434 -99.305519 47.480774
v -14.586434 -99.305519 47.480774
v 12.586434 -1.050972 -1.000000
v 12.586434 -1.050972 1.000000
v -12.586434 -1.050972 1.000000
v -12.586434 -1.050972 -1.000000
vn 0.000000 -0.427756 -0.903894
vn 0.000000 0.427756 0.903894
vn 0.000000 -0.427756 0.903894
vn 0.000000 0.427756 -0.903894
vn 0.000000 -0.010670 0.999943
usemtl red
s off
f 74//6 73//6 77//6 78//6
f 78//8 79//8 75//8 74//8
f 79//2 80//2 76//2 75//2
f 73//9 76//9 80//9 77//9
f 105//7 106//7 110//7 109//7
f 80//5 79//5 78//5 77//5
f 85//6 81//6 82//6 86//6
f 86//10 82//10 83//10 87//10
f 87//2 83//2 84//2 88//2
f 88//11 84//11 81//11 85//11
f 81//1 84//1 106//1 105//1
f 88//5 85//5 86//5 87//5
f 93//2 89//2 90//2 94//2
f 94//8 90//8 91//8 95//8
f 95//6 91//6 92//6 96//6
f 96//9 92//9 89//9 93//9
f 107//7 111//7 112//7 108//7
f 96//7 95//7 94//7 93//7
f 101//2 102//2 98//2 97//2
f 102//10 103//10 99//10 98//10
f 103//6 104//6 100//6 99//6
f 104//11 101//11 97//11 100//11
f 97//1 107//1 108//1 100//1
f 104//5 103//5 102//5 101//5
f 73//12 109//12 110//12 76//12
f 89//12 92//12 112//12 111//12
f 75//5 83//5 82//5 74//5
f 91//5 90//5 98//5 99//5
f 84//2 76//2 110//2 106//2
f 100//6 108//6 112//6 92//6
f 73//5 81//5 97//5 89//5
f 78//5 94//5 93//5 86//5
f 113//7 114//7 115//7 116//7
f 77//3 93//3 115//3 114//3
f 116//1 94//1 78//1 113//1
o wheel
v 10.291135 -1.000000 -70.916664
v 10.291135 -1.000000 70.834137
v 8.291135 -1.000000 68.934433
v 8.291135 -1.000000 -68.851952
v 10.291135 1.000000 -70.916626
v 10.291135 1.000000 70.834175
v 8.291135 1.000000 68.934425
v 8.291135 1.000000 -68.851929
v -10.257051 -1.000000 -70.916687
v -10.257051 1.000000 -70.916664
v -8.302495 -1.000000 -68.851929
v -8.302495 -1.000000 68.934448
v -10.302495 -1.000000 70.834122
v -8.302494 1.000000 -68.851891
v -8.302496 1.000000 68.934486
v -10.302495 1.000000 70.834114
v 10.291138 -67.754784 -20.963364
v 10.291132 67.058266 22.839972
v 8.291132 65.251541 22.252932
v 8.291138 -65.791130 -20.325331
v 10.291138 -67.136719 -22.865467
v 10.291132 67.676338 20.937870
v 8.291132 65.869560 20.350817
v 8.291138 -65.173073 -22.227442
v -10.257048 -67.754807 -20.963371
v -10.257048 -67.136749 -22.865475
v -8.302492 -65.791100 -20.325327
v -8.302498 65.251549 22.252939
v -10.302498 67.058243 22.839968
v -8.302491 -65.173035 -22.227428
v -8.302499 65.869621 20.350838
v -10.302498 67.676270 20.937853
v 10.291142 -40.874691 57.960621
v 10.291127 42.444218 -56.718281
v 8.291127 41.327602 -55.181393
v 8.291142 -39.661087 56.290237
v 10.291142 -42.492706 56.785023
v 10.291127 40.826206 -57.893887
v 8.291127 39.709560 -56.356953
v 8.291142 -41.279110 55.114647
v -10.257043 -40.874710 57.960636
v -10.257043 -42.492725 56.785046
v -8.302487 -39.661072 56.290207
v -8.302503 41.327610 -55.181400
v -10.302503 42.444206 -56.718269
v -8.302486 -41.279087 55.114609
v -8.302504 39.709599 -56.356998
v -10.302503 40.826168 -57.893829
v 10.291142 42.492878 56.784935
v 10.291127 -40.826336 -57.893742
v 8.291127 -39.709721 -56.356853
v 8.291142 41.279282 55.114555
v 10.291142 40.874832 57.960484
v 10.291127 -42.444393 -56.718204
v 8.291127 -41.327747 -55.181271
v 8.291142 39.661228 56.290108
v -10.257043 42.492889 56.784962
v -10.257043 40.874844 57.960506
v -8.302487 41.279251 55.114532
v -8.302503 -39.709728 -56.356865
v -10.302503 -40.826332 -57.893730
v -8.302486 39.661198 56.290077
v -8.302504 -41.327778 -55.181320
v -10.302503 -42.444355 -56.718147
v 10.291138 67.136696 -22.865654
v 10.291132 -67.676239 20.938040
v 8.291132 -65.869522 20.351000
v 8.291138 65.173042 -22.227633
v 10.291138 67.754700 -20.963535
v 10.291132 -67.058243 22.840168
v 8.291132 -65.251472 22.253111
v 8.291138 65.791054 -20.325510
v -10.257048 67.136719 -22.865662
v -10.257048 67.754730 -20.963543
v -8.302492 65.173012 -22.227608
v -8.302498 -65.869537 20.351004
v -10.302498 -67.676231 20.938036
v -8.302491 65.791016 -20.325489
v -8.302499 -65.251534 22.253119
v -10.302498 -67.058182 22.840147
vn 0.000001 0.000015 -1.000000
vn 0.000002 -0.000015 1.000000
vn -1.000000 0.000000 -0.000321
vn -0.000002 -0.000008 1.000000
vn -0.000002 0.000008 -1.000000
vn 0.000001 -0.309016 0.951057
vn -0.000001 0.309016 -0.951057
vn 0.000001 -0.951052 -0.309031
vn -0.000000 0.309016 -0.951057
vn -0.000000 -0.309017 0.951056
vn 0.000002 0.951052 0.309030
vn 0.000000 -0.309017 0.951057
vn -1.000000 -0.000305 -0.000099
vn -0.000002 0.951054 0.309025
vn 0.000000 -0.309016 0.951057
vn -0.000002 -0.951055 -0.309023
vn -0.000000 0.809018 0.587784
vn 0.000000 -0.809018 -0.587784
vn 0.000001 -0.587798 0.809008
vn -0.000000 0.809017 0.587785
vn 0.000002 0.587797 -0.809009
vn -0.000001 0.809018 0.587784
vn -1.000000 -0.000189 0.000259
vn -0.000002 0.587792 -0.809012
vn -0.000002 -0.587790 0.809014
vn 0.000001 0.809016 -0.587787
vn 0.000001 -0.809016 0.587787
vn 0.000001 0.587775 0.809025
vn 0.000000 -0.809016 0.587787
vn -0.000000 0.809018 -0.587784
vn 0.000002 -0.587773 -0.809026
vn -0.000000 -0.809016 0.587786
vn -0.000001 0.809016 -0.587787
vn -1.000000 0.000189 0.000259
vn -0.000002 -0.587780 -0.809021
vn -0.000000 0.809016 -0.587786
vn -0.000002 0.587782 0.809019
vn 0.000003 -0.309019 -0.951056
vn -0.000001 0.309019 0.951056
vn 0.000001 0.951061 -0.309004
vn 0.000000 0.309018 0.951056
vn -0.000000 -0.309017 -0.951057
vn 0.000002 -0.951061 0.309004
vn 0.000002 0.309019 0.951056
vn 0.000001 -0.309019 -0.951056
vn -1.000000 0.000305 -0.000099
vn -0.000002 -0.951058 0.309011
vn -0.000000 0.309020 0.951055
vn 0.000000 -0.309018 -0.951056
vn -0.000002 0.951058 -0.309014
usemtl blue
s off
f 117//7 118//7 119//7 120//7
f 121//5 124//5 123//5 122//5
f 117//2 121//2 122//2 118//2
f 119//6 123//6 124//6 120//6
f 121//13 117//13 125//13 126//13
f 127//2 130//2 131//2 128//2
f 126//5 130//5 124//5 121//5
f 117//7 120//7 127//7 125//7
f 120//14 124//14 130//14 127//14
f 130//5 126//5 132//5 131//5
f 127//7 128//7 129//7 125//7
f 129//15 132//15 126//15 125//15
f 129//16 118//16 122//16 132//16
f 132//5 122//5 123//5 131//5
f 118//7 129//7 128//7 119//7
f 119//17 128//17 131//17 123//17
f 133//18 134//18 135//18 136//18
f 137//19 140//19 139//19 138//19
f 133//2 137//2 138//2 134//2
f 135//6 139//6 140//6 136//6
f 141//20 142//20 137//20 133//20
f 143//2 146//2 147//2 144//2
f 142//21 146//21 140//21 137//21
f 143//22 141//22 133//22 136//22
f 136//23 140//23 146//23 143//23
f 146//19 142//19 148//19 147//19
f 143//24 144//24 145//24 141//24
f 145//25 148//25 142//25 141//25
f 145//26 134//26 138//26 148//26
f 148//21 138//21 139//21 147//21
f 134//27 145//27 144//27 135//27
f 135//28 144//28 147//28 139//28
f 149//29 150//29 151//29 152//29
f 153//30 156//30 155//30 154//30
f 149//2 153//2 154//2 150//2
f 151//6 155//6 156//6 152//6
f 157//31 158//31 153//31 149//31
f 159//2 162//2 163//2 160//2
f 158//30 162//30 156//30 153//30
f 159//32 157//32 149//32 152//32
f 152//33 156//33 162//33 159//33
f 162//30 158//30 164//30 163//30
f 159//34 160//34 161//34 157//34
f 161//35 164//35 158//35 157//35
f 161//36 150//36 154//36 164//36
f 164//30 154//30 155//30 163//30
f 150//32 161//32 160//32 151//32
f 151//37 160//37 163//37 155//37
f 165//38 166//38 167//38 168//38
f 169//39 172//39 171//39 170//39
f 165//2 169//2 170//2 166//2
f 167//6 171//6 172//6 168//6
f 173//40 174//40 169//40 165//40
f 175//2 178//2 179//2 176//2
f 174//41 178//41 172//41 169//41
f 175//42 173//42 165//42 168//42
f 168//43 172//43 178//43 175//43
f 178//44 174//44 180//44 179//44
f 175//45 176//45 177//45 173//45
f 177//46 180//46 174//46 173//46
f 177//47 166//47 170//47 180//47
f 180//44 170//44 171//44 179//44
f 166//48 177//48 176//48 167//48
f 167//49 176//49 179//49 171//49
f 181//50 182//50 183//50 184//50
f 185//51 188//51 187//51 186//51
f 181//2 185//2 186//2 182//2
f 183//6 187//6 188//6 184//6
f 189//52 190//52 185//52 181//52
f 191//2 194//2 195//2 192//2
f 190//53 194//53 188//53 185//53
f 191//54 189//54 181//54 184//54
f 184//55 188//55 194//55 191//55
f 194//56 190//56 196//56 195//56
f 191//57 192//57 193//57 189//57
f 193//58 196//58 190//58 189//58
f 193//59 182//59 186//59 196//59
f 196//60 186//60 187//60 195//60
f 182//61 193//61 192//61 183//61
f 183//62 192//62 195//62 187//62
